<?xml version="1.0" standalone="no"?>
<!DOCTYPE svg PUBLIC "-//W3C//DTD SVG 20010904//EN"
 "http://www.w3.org/TR/2001/REC-SVG-20010904/DTD/svg10.dtd">
<svg version="1.0" xmlns="http://www.w3.org/2000/svg"
 width="474.000000pt" height="316.000000pt" viewBox="0 0 474.000000 316.000000"
 preserveAspectRatio="xMidYMid meet">

<g transform="translate(0.000000,316.000000) scale(0.100000,-0.100000)"
fill="#000000" stroke="none">
<path d="M1739 2908 c-36 -38 -87 -123 -111 -185 -19 -49 -23 -77 -23 -178 1
-188 47 -306 166 -425 75 -75 189 -139 287 -160 37 -9 62 -19 62 -27 0 -7 -4
-13 -9 -13 -5 0 -40 -29 -79 -65 -103 -95 -210 -258 -263 -400 -11 -30 -24
-55 -28 -55 -5 0 -29 36 -54 79 -80 137 -210 259 -353 330 -194 96 -462 47
-610 -112 -119 -127 -166 -281 -144 -467 34 -275 187 -492 439 -622 112 -58
262 -82 371 -59 108 23 245 110 314 200 21 28 43 51 50 51 6 0 21 -35 34 -78
62 -203 164 -348 310 -439 72 -45 81 -48 152 -50 55 -2 68 0 47 6 -89 29 -186
89 -259 162 -110 107 -133 160 -133 299 0 99 2 109 32 166 39 74 90 127 157
162 69 35 216 43 303 16 85 -26 217 -88 283 -133 32 -22 60 -37 63 -34 3 3
-15 46 -41 97 -108 209 -145 354 -146 566 -1 162 10 210 70 311 88 147 230
197 364 129 71 -36 198 -173 254 -273 26 -48 52 -87 57 -87 4 0 13 19 19 43
19 73 18 72 41 51 67 -60 153 -217 190 -344 23 -79 37 -284 20 -294 -6 -4 -11
-1 -11 6 -1 63 -23 205 -36 231 -37 73 -80 88 -111 40 -16 -24 -18 -52 -18
-203 0 -122 -4 -182 -12 -197 -25 -42 -12 -42 82 4 52 25 114 48 137 50 l43 5
0 -83 c0 -70 4 -91 24 -125 35 -61 89 -88 176 -89 69 0 70 0 67 -25 -5 -44
-24 -93 -61 -165 -43 -83 -171 -218 -248 -262 -59 -33 -60 -44 -5 -36 134 21
334 290 366 493 4 25 23 53 64 96 60 63 114 161 126 228 12 63 8 172 -7 208
-21 50 -76 109 -122 129 -54 25 -145 25 -194 0 -75 -39 -130 -127 -155 -246
-9 -47 -16 -60 -30 -60 -17 0 -19 11 -21 115 -2 93 -8 131 -30 199 -50 155
-144 307 -263 424 -90 89 -164 141 -270 192 -75 36 -242 85 -291 85 -50 0 -52
11 -19 80 52 108 68 175 68 280 0 164 -61 311 -183 438 l-41 42 -418 0 -417 0
-22 -22z m1774 -1709 c12 -79 0 -155 -26 -174 -38 -27 -44 -19 -51 72 -7 86
-7 88 18 108 14 12 26 29 26 39 0 40 26 6 33 -45z"/>
<path d="M3117 1519 c-41 -25 -52 -67 -50 -204 2 -220 53 -386 128 -422 52
-25 84 -10 115 52 67 134 10 471 -93 549 -39 30 -76 39 -100 25z m135 -154
c46 -118 58 -290 28 -397 -21 -72 -78 -58 -116 28 -25 58 -59 226 -50 250 3 8
16 14 29 14 44 0 62 34 62 114 0 68 1 71 16 52 8 -12 23 -39 31 -61z"/>
<path d="M2304 740 c-57 -18 -104 -53 -91 -66 3 -3 40 4 82 16 42 12 79 20 81
17 3 -2 7 -36 9 -75 9 -139 78 -259 208 -363 42 -34 56 -39 99 -39 l51 0 -49
26 c-48 26 -127 84 -152 114 -87 102 -150 294 -108 329 16 14 76 12 169 -5 54
-10 48 12 -10 38 -69 31 -207 35 -289 8z"/>
<path d="M2510 240 c0 -5 7 -10 16 -10 8 0 12 5 9 10 -3 6 -10 10 -16 10 -5 0
-9 -4 -9 -10z"/>
</g>
</svg>
